<svg xmlns="http://www.w3.org/2000/svg" style="display: none;"><symbol id="architecture" viewBox="0 0 512 512"><title>architecture</title><path d="m512 256c0 141.386719-114.613281 256-256 256s-256-114.613281-256-256 114.613281-256 256-256 256 114.613281 256 256zm0 0" fill="#6e6e6e"/><path d="m512 256c0-20.796875-2.496094-41.003906-7.175781-60.359375l-78.796875-78.796875-51.191406 51.191406-20.191407-20.191406-78.960937 78.964844-149.808594-149.808594-30.664062 30.664062 149.808593 149.808594-153.464843 153.460938 90.078124 90.082031c23.539063 7.132813 48.5 10.984375 74.367188 10.984375 141.386719 0 256-114.613281 256-256zm0 0" fill="#5a5a5a"/><path d="m426 116.84375v300.15625h-320.078125c-10.957031 0-19.921875-8.964844-19.921875-19.921875s8.964844-39.84375 19.921875-39.84375l19.921875-240.390625zm0 0" fill="#ffe470"/><path d="m275.921875 116.84375h150.078125v300.15625h-150.078125zm0 0" fill="#ffd400"/><path d="m265.960938 197.859375-19.921876 9.960937 19.921876 9.960938v19.921875l-19.921876 9.960937 19.921876 9.960938v19.921875l-19.921876 9.960937 19.921876 9.960938v19.921875l-19.921876 9.960937 19.921876 9.960938v39.84375h-79.6875v-219.140625h79.6875zm0 0" fill="#fdbf00"/><path d="m265.960938 197.859375-19.921876 9.960937 19.921876 9.960938v19.921875l-19.921876 9.960937 19.921876 9.960938v19.921875l-19.921876 9.960937 19.921876 9.960938v19.921875l-19.921876 9.960937 19.921876 9.960938v39.84375h-39.84375v-219.140625h39.84375zm0 0" fill="#ff9f00"/><g fill="#fdbf00"><path d="m125.84375 77v300.15625h-19.921875c-10.957031 0-19.921875 8.964844-19.921875 19.921875v-290.195313c0-16.535156 13.347656-29.882812 29.882812-29.882812zm0 0"/><path d="m246.039062 197.859375h19.921876v19.921875h-19.921876zm0 0"/><path d="m246.039062 237.703125h19.921876v19.921875h-19.921876zm0 0"/><path d="m246.039062 277.546875h19.921876v19.921875h-19.921876zm0 0"/><path d="m246.039062 317.390625h19.921876v19.921875h-19.921876zm0 0"/></g><path d="m345.648438 317.390625-29.882813 62.15625-29.882813-62.15625 29.882813-19.921875zm0 0" fill="#fed2a4"/><path d="m345.648438 158.015625v39.84375l-29.882813 19.921875-29.882813-19.921875v-39.84375zm0 0" fill="#5a5a5a"/><path d="m315.765625 297.46875 29.882813 19.921875-29.882813 62.15625zm0 0" fill="#f6a96c"/><path d="m345.648438 158.015625v39.84375l-29.882813 19.921875v-59.765625zm0 0" fill="#444"/><path d="m285.882812 197.859375h59.765626v119.53125h-59.765626zm0 0" fill="#ff7816"/><path d="m315.765625 197.859375h29.882813v119.53125h-29.882813zm0 0" fill="#ff4b00"/></symbol><symbol id="idea" viewBox="0 0 512 512"><title>idea</title><path d="m512 256c0 141.386719-114.613281 256-256 256s-256-114.613281-256-256 114.613281-256 256-256 256 114.613281 256 256zm0 0" fill="#78b9eb"/><path d="m511.804688 246.464844-162.925782-162.929688-175.890625 175.890625 77.175781 77.171875-80.160156 80.160156 36.5 36.5-1.25 1.25 57.40625 57.40625c138.304688-3.53125 249.339844-116.757812 249.339844-255.914062 0-3.195312-.078125-6.367188-.195312-9.535156zm0 0" fill="#5aaae7"/><path d="m317.425781 367.386719v61.425781c0 20.390625-16.464843 36.851562-36.855469 36.851562h-49.140624c-20.394532 0-36.855469-16.460937-36.855469-36.851562v-61.425781l24.570312-25.390625h73.710938zm0 0" fill="#e2e2e7"/><path d="m317.425781 367.386719v61.425781c0 20.390625-16.464843 36.851562-36.855469 36.851562h-24.570312v-123.667968h36.855469zm0 0" fill="#d3d3d8"/><path d="m391.136719 181.46875c0 43-19.902344 82.3125-54.300781 108.109375-12.285157 9.089844-19.410157 22.113281-19.410157 35.382813v42.425781h-122.855469v-41.691407c0-14.003906-6.140624-26.78125-16.214843-33.90625-43.242188-30.464843-64.375-81.820312-55.527344-134.152343 9.335937-53.5625 51.105469-97.050781 104.175781-108.355469 9.585938-1.964844 19.410156-2.945312 28.992188-2.945312 30.960937 0 60.691406 10.5625 85.015625 30.21875 31.941406 25.800781 50.125 64.128906 50.125 104.914062zm0 0" fill="#ffe470"/><path d="m391.136719 181.46875c0 43-19.902344 82.3125-54.300781 108.109375-12.285157 9.089844-19.410157 22.113281-19.410157 35.382813v42.425781h-61.429687v-321.054688c30.960937 0 60.691406 10.566407 85.015625 30.222657 31.941406 25.800781 50.125 64.128906 50.125 104.914062zm0 0" fill="#fdbf00"/><path d="m170.003906 391.957031h73.710938v24.570313h-73.710938zm0 0" fill="#d3d3d8"/><path d="m268.28125 391.957031h73.710938v24.570313h-73.710938zm0 0" fill="#babac0"/><path d="m243.714844 230.609375h24.566406v85.996094h-24.566406zm0 0" fill="#fdbf00"/><path d="m255.996094 230.609375h12.285156v85.996094h-12.285156zm0 0" fill="#ff9f00"/><path d="m255.996094 169.183594c-20.390625 0-36.851563 16.464844-36.851563 36.855468 0 20.394532 16.460938 36.855469 36.851563 36.855469 20.394531 0 36.855468-16.460937 36.855468-36.855469 0-20.390624-16.460937-36.855468-36.855468-36.855468zm0 0" fill="#fdbf00"/><path d="m292.851562 206.039062c0 20.394532-16.460937 36.855469-36.855468 36.855469v-73.710937c20.394531 0 36.855468 16.464844 36.855468 36.855468zm0 0" fill="#ff9f00"/></symbol><symbol id="skyscrapper" viewBox="0 0 512 512"><title>skyscrapper</title><path d="m512 256c0 141.386719-114.613281 256-256 256s-256-114.613281-256-256 114.613281-256 256-256 256 114.613281 256 256zm0 0" fill="#ffd400"/><path d="m266.714844 47-12.714844 31.332031 2 103.035157-78.15625 166.050781-58.667969-58.667969-31.820312 31.820312 16.3125 16.3125-21.167969 21.167969 22.234375 22.230469-30.710937 30.710938 79.765624 79.769531c31.3125 13.648437 65.871094 21.238281 102.210938 21.238281 129.847656 0 237.101562-96.675781 253.742188-221.96875zm0 0" fill="#fdbf00"/><path d="m245.335938 47h21.328124v53.320312h-21.328124zm0 0" fill="#78b9eb"/><path d="m256 47h10.664062v53.320312h-10.664062zm0 0" fill="#5aaae7"/><path d="m224.007812 89.65625h63.984376v75.359375h-63.984376zm0 0" fill="#d3d3d8"/><path d="m256 89.65625h31.992188v75.359375h-31.992188zm0 0" fill="#babac0"/><path d="m181.351562 154.351562h149.296876v54.03125h-149.296876zm0 0" fill="#e2e2e7"/><path d="m256 154.351562h74.648438v54.03125h-74.648438zm0 0" fill="#d3d3d8"/><path d="m160.023438 197.71875h191.953124v202.617188h-191.953124zm0 0" fill="#ececf1"/><path d="m256 197.71875h95.976562v202.617188h-95.976562zm0 0" fill="#e2e2e7"/><path d="m395.34375 357.679688h21.328125v42.65625h-21.328125zm0 0" fill="#a8d32a"/><path d="m406.007812 357.679688h10.664063v42.65625h-10.664063zm0 0" fill="#93bf00"/><path d="m202.679688 240.375h42.65625v21.328125h-42.65625zm0 0" fill="#78b9eb"/><path d="m266.664062 240.375h42.65625v21.328125h-42.65625zm0 0" fill="#5aaae7"/><path d="m202.679688 283.03125h42.65625v21.328125h-42.65625zm0 0" fill="#78b9eb"/><path d="m266.664062 283.03125h42.65625v21.328125h-42.65625zm0 0" fill="#5aaae7"/><path d="m202.679688 325.6875h42.65625v21.328125h-42.65625zm0 0" fill="#78b9eb"/><path d="m266.664062 325.6875h42.65625v21.328125h-42.65625zm0 0" fill="#5aaae7"/><path d="m245.335938 368.34375h21.328124v31.992188h-21.328124zm0 0" fill="#5a5a5a"/><path d="m406.007812 283.03125c-21.96875 0-31.992187 40.949219-31.992187 53.320312 0 17.699219 14.289063 31.992188 31.992187 31.992188 17.703126 0 31.992188-14.289062 31.992188-31.992188 0-12.371093-10.023438-53.320312-31.992188-53.320312zm0 0" fill="#b9dd39"/><path d="m438 336.351562c0 17.703126-14.289062 31.992188-31.992188 31.992188v-85.3125c21.96875 0 31.992188 40.949219 31.992188 53.320312zm0 0" fill="#a8d32a"/><path d="m95.328125 357.679688h21.328125v42.65625h-21.328125zm0 0" fill="#a8d32a"/><path d="m105.992188 357.679688h10.664062v42.65625h-10.664062zm0 0" fill="#93bf00"/><path d="m105.992188 283.03125c-21.96875 0-31.992188 40.949219-31.992188 53.320312 0 17.699219 14.289062 31.992188 31.992188 31.992188 17.703124 0 31.992187-14.292969 31.992187-31.992188 0-12.371093-10.023437-53.320312-31.992187-53.320312zm0 0" fill="#b9dd39"/><path d="m137.984375 336.351562c0 17.703126-14.289063 31.992188-31.992187 31.992188v-85.3125c21.96875 0 31.992187 40.949219 31.992187 53.320312zm0 0" fill="#a8d32a"/><path d="m256 368.34375h10.664062v31.992188h-10.664062zm0 0" fill="#444"/><path d="m74 389.671875h364v21.328125h-364zm0 0" fill="#6e6e6e"/><path d="m256 389.671875h182v21.328125h-182zm0 0" fill="#5a5a5a"/></symbol><symbol id="brick-wall" viewBox="0 0 512 512"><title>brick-wall</title><path d="m512 256c0 141.386719-114.613281 256-256 256s-256-114.613281-256-256 114.613281-256 256-256 256 114.613281 256 256zm0 0" fill="#6e6e6e"/><path d="m512 256c0-31.453125-5.683594-61.574219-16.0625-89.410156l-69.964844-69.964844-71.144531 71.144531-10.601563-10.601562-101.238281 101.234375-119.515625-119.519532-37.445312 37.445313 119.519531 119.519531-22.285156 22.285156-59.746094-59.75-37.445313 37.445313 59.746094 59.746094-59.8125 59.816406 80.523438 80.523437c27.851562 10.390626 57.996094 16.085938 89.472656 16.085938 141.386719 0 256-114.613281 256-256zm0 0" fill="#5a5a5a"/><path d="m426 176.3125v-79.6875h-340v79.6875h39.84375v39.84375h-39.84375v79.6875h39.84375v39.84375h-39.84375v79.691406h340v-79.691406h-40.507812v-39.84375h40.507812v-79.6875h-40.507812v-39.84375zm0 0" fill="#ff9f00"/><path d="m385.492188 176.3125v39.84375h40.507812v79.6875h-40.507812v39.84375h40.507812v79.6875h-170v-318.75h170v79.6875zm0 0" fill="#ff7816"/><path d="m105.921875 116.546875h79.6875v39.84375h-79.6875zm0 0" fill="#ff7816"/><path d="m205.53125 116.546875h100.273438v39.84375h-100.273438zm0 0" fill="#ff7816"/><path d="m325.726562 116.546875h80.351563v39.84375h-80.351563zm0 0" fill="#ff4b00"/><path d="m265.960938 176.3125h99.609374v39.84375h-99.609374zm0 0" fill="#ff4b00"/><path d="m145.765625 176.3125h100.273437v39.84375h-100.273437zm0 0" fill="#ff7816"/><path d="m105.921875 236.078125h79.6875v39.84375h-79.6875zm0 0" fill="#ff7816"/><path d="m205.53125 236.078125h100.273438v39.84375h-100.273438zm0 0" fill="#ff7816"/><path d="m325.726562 236.078125h80.351563v39.84375h-80.351563zm0 0" fill="#ff4b00"/><path d="m265.960938 295.84375h99.609374v39.84375h-99.609374zm0 0" fill="#ff4b00"/><path d="m145.765625 295.84375h100.273437v39.84375h-100.273437zm0 0" fill="#ff7816"/><path d="m105.921875 355.609375h79.6875v39.84375h-79.6875zm0 0" fill="#ff7816"/><path d="m205.53125 355.609375h100.273438v39.84375h-100.273438zm0 0" fill="#ff7816"/><g fill="#ff4b00"><path d="m325.726562 355.609375h80.351563v39.84375h-80.351563zm0 0"/><path d="m256 116.546875h49.804688v39.84375h-49.804688zm0 0"/><path d="m256 236.078125h49.804688v39.84375h-49.804688zm0 0"/><path d="m256 355.609375h49.804688v39.84375h-49.804688zm0 0"/></g></symbol><symbol id="table" viewBox="0 0 512 512"><title>table</title><path d="m512 256c0 141.386719-114.613281 256-256 256s-256-114.613281-256-256 114.613281-256 256-256 256 114.613281 256 256zm0 0" fill="#ffd400"/><path d="m511.929688 261.59375-107.398438-107.398438-13.574219 13.574219-115.464843-115.464843-136.269532 46.972656.277344 70.222656-13.832031 147.167969-3 24-15.296875 89.257812 69.636718 69.636719c24.882813 8.0625 51.425782 12.4375 78.992188 12.4375 139.515625 0 252.953125-111.605469 255.929688-250.40625zm0 0" fill="#fdbf00"/><path d="m153.167969 165.683594h-22.851563v-76.789063l76.367188-25.453125 7.226562 21.671875-60.742187 20.25zm0 0" fill="#5a5a5a"/><path d="m118.890625 360.683594h274.21875v22.851562h-274.21875zm0 0" fill="#5a5a5a"/><path d="m256 360.683594h137.109375v22.851562h-137.109375zm0 0" fill="#444"/><path d="m107.464844 326.40625h22.851562v103.59375h-22.851562zm0 0" fill="#5a5a5a"/><path d="m381.683594 326.40625h22.851562v103.59375h-22.851562zm0 0" fill="#444"/><path d="m451 337.832031h-390l46.464844-183.574219h297.070312zm0 0" fill="#96c8ef"/><path d="m451 337.832031h-195v-183.574219h148.535156zm0 0" fill="#78b9eb"/><path d="m381.683594 292.128906h-251.367188l22.851563-92.167968h205.664062zm0 0" fill="#ececf1"/><path d="m256 41.601562c-3.65625-1.144531-7.539062-1.601562-11.425781-1.601562-25.136719 0-45.703125 20.566406-45.703125 45.703125v45.703125h91.40625v-45.703125c0-21.253906-14.625-39.078125-34.277344-44.101563zm0 0" fill="#ff9f00"/><path d="m290.277344 131.40625h-34.277344v-89.804688c19.652344 5.027344 34.277344 22.851563 34.277344 44.101563zm0 0" fill="#ff7816"/><path d="m381.683594 292.128906h-125.683594v-92.167968h102.832031zm0 0" fill="#e2e2e7"/></symbol><symbol id="paint-roller" viewBox="0 0 512 512"><title>paint-roller</title><path d="m512 256c0 141.386719-114.613281 256-256 256s-256-114.613281-256-256 114.613281-256 256-256 256 114.613281 256 256zm0 0" fill="#ffd400"/><path d="m305.246094 203.386719-42.984375-42.984375-12.105469 34.898437-77.203125-77.203125-96.875 96.871094 184.625 184.625-53.875 53.875 58.351563 58.351562c137.128906-4.835937 246.820312-117.507812 246.820312-255.820312 0-14.746094-1.265625-29.199219-3.660156-43.265625l-106.21875-106.222656zm0 0" fill="#fdbf00"/><path d="m446.066406 149.875v107.351562l-195.910156 21.6875v44.460938h-21.6875v-63.976562l10.84375-1.304688 185.066406-20.382812v-66.148438h-22.410156l-21.6875-10.195312 21.6875-11.492188zm0 0" fill="#5a5a5a"/><path d="m446.066406 149.875v107.351562l-195.910156 21.6875v44.460938h-10.84375v-65.28125l185.066406-20.382812v-66.148438h-22.410156l-21.6875-10.195312 21.6875-11.492188zm0 0" fill="#444"/><path d="m401.96875 171.5625v43.375h-326.035156v-43.375l16.265625-21.6875h298.273437zm0 0" fill="#ececf1"/><path d="m401.96875 171.5625v43.375h-162.65625v-65.0625h151.160156zm0 0" fill="#e2e2e7"/><path d="m206.78125 312.53125h65.0625v140.96875h-65.0625zm0 0" fill="#ff7816"/><path d="m239.3125 312.53125h32.53125v140.96875h-32.53125zm0 0" fill="#ff4b00"/><path d="m401.96875 106.5v65.0625h-151.8125v43.375c0 8.023438-4.339844 14.964844-10.84375 18.652344-3.253906 1.949218-6.941406 3.035156-10.84375 3.035156-11.929688 0-21.6875-9.757812-21.6875-21.6875v-43.375h-43.375v65.0625c0 11.929688-9.761719 21.6875-21.6875 21.6875-11.929688 0-21.691406-9.757812-21.691406-21.6875v-65.0625h-44.09375v-65.0625zm0 0" fill="#a8d32a"/><path d="m401.96875 106.5v65.0625h-151.8125v43.375c0 8.023438-4.339844 14.964844-10.84375 18.652344v-127.089844zm0 0" fill="#93bf00"/><path d="m185.09375 301.6875h108.4375v21.6875h-108.4375zm0 0" fill="#6e6e6e"/><path d="m239.3125 301.6875h54.21875v21.6875h-54.21875zm0 0" fill="#5a5a5a"/></symbol><symbol id="certificate" viewBox="0 0 512 512"><title>certificate</title><path d="m512 256c0 141.386719-114.613281 256-256 256s-256-114.613281-256-256 114.613281-256 256-256 256 114.613281 256 256zm0 0" fill="#6e6e6e"/><path d="m512 256c0-36.367188-7.601562-70.953125-21.273438-102.285156l-44.714843-44.714844-60.632813 60.632812-56.382812-56.382812-263.003906 263.007812 128.21875 128.214844c19.789062 4.90625 40.480468 7.527344 61.789062 7.527344 141.386719 0 256-114.613281 256-256zm0 0" fill="#5a5a5a"/><path d="m65.992188 109h380.015624v267.199219h-380.015624zm0 0" fill="#fdbf00"/><path d="m256 109h190.007812v267.199219h-190.007812zm0 0" fill="#ff9f00"/><path d="m400.734375 175.800781v133.597657h-11.132813c-6.238281 0-11.132812 4.898437-11.132812 11.132812v11.132812h-244.9375v-11.132812c0-6.234375-4.894531-11.132812-11.132812-11.132812h-11.132813v-133.597657h11.132813c6.238281 0 11.132812-4.898437 11.132812-11.132812v-11.132813h244.933594v11.132813c0 6.234375 4.898437 11.132812 11.132812 11.132812zm0 0" fill="#ececf1"/><path d="m400.734375 175.800781v133.597657h-11.132813c-6.238281 0-11.132812 4.898437-11.132812 11.132812v11.132812h-122.46875v-178.132812h122.46875v11.132812c0 6.234376 4.894531 11.136719 11.132812 11.136719zm0 0" fill="#e2e2e7"/><path d="m155.800781 198.066406h200.398438v22.269532h-200.398438zm0 0" fill="#d3d3d8"/><path d="m289.398438 331.667969v111.332031l-33.398438-44.53125-33.398438 44.53125v-111.332031zm0 0" fill="#ff7816"/><path d="m289.398438 331.667969v111.332031l-33.398438-44.53125v-66.800781zm0 0" fill="#ff4b00"/><path d="m256 198.066406h100.199219v22.269532h-100.199219zm0 0" fill="#babac0"/><path d="m256 242.601562c-30.726562 0-55.667969 24.9375-55.667969 55.664063 0 30.730469 24.941407 55.667969 55.667969 55.667969s55.667969-24.9375 55.667969-55.667969c0-30.726563-24.941407-55.664063-55.667969-55.664063zm0 0" fill="#ffe470"/><path d="m311.667969 298.265625c0 30.730469-24.941407 55.667969-55.667969 55.667969v-111.332032c30.726562 0 55.667969 24.9375 55.667969 55.664063zm0 0" fill="#ffd400"/><path d="m256 264.867188c-18.480469 0-33.398438 14.917968-33.398438 33.398437s14.917969 33.402344 33.398438 33.402344 33.398438-14.921875 33.398438-33.402344-14.917969-33.398437-33.398438-33.398437zm0 0" fill="#fdbf00"/><path d="m289.398438 298.265625c0 18.480469-14.917969 33.402344-33.398438 33.402344v-66.800781c18.480469 0 33.398438 14.917968 33.398438 33.398437zm0 0" fill="#ff9f00"/></symbol><symbol id="fence" viewBox="0 0 512 512"><title>fence</title><path d="m512 256c0 141.386719-114.613281 256-256 256s-256-114.613281-256-256 114.613281-256 256-256 256 114.613281 256 256zm0 0" fill="#b9dd39"/><path d="m373.367188 204.964844-117.046876-117.046875-26.464843 112.5625-112.5625-112.5625-11.960938 97.082031 17.390625 108.332031-47.621094 112.738281 88.875 88.875c28.5625 11.003907 59.585938 17.054688 92.023438 17.054688 141.386719 0 256-114.613281 256-256 0-19.644531-2.21875-38.769531-6.410156-57.144531l-110.9375-110.9375zm0 0" fill="#a8d32a"/><path d="m287.816406 193.972656h85.550782v42.421875h-85.550782zm0 0" fill="#444"/><path d="m287.816406 321.238281h85.550782v42.421875h-85.550782zm0 0" fill="#444"/><path d="m138.632812 193.972656h85.550782v42.421875h-85.550782zm0 0" fill="#5a5a5a"/><path d="m138.632812 321.238281h85.550782v42.421875h-85.550782zm0 0" fill="#5a5a5a"/><path d="m159.84375 151.550781v254.53125h-84.84375v-254.53125l42.421875-63.632812zm0 0" fill="#ff9f00"/><path d="m159.84375 151.550781v254.53125h-42.421875v-318.164062zm0 0" fill="#ff7816"/><path d="m106.816406 215.183594h21.210938v21.210937h-21.210938zm0 0" fill="#5a5a5a"/><path d="m106.816406 321.238281h21.210938v21.210938h-21.210938zm0 0" fill="#5a5a5a"/><path d="m117.421875 215.183594h10.605469v21.210937h-10.605469zm0 0" fill="#444"/><path d="m117.421875 321.238281h10.605469v21.210938h-10.605469zm0 0" fill="#444"/><path d="m298.421875 151.550781v254.53125h-84.84375v-254.53125l42.421875-63.632812zm0 0" fill="#ff9f00"/><path d="m298.421875 151.550781v254.53125h-42.421875v-318.164062zm0 0" fill="#ff7816"/><path d="m245.394531 215.183594h21.210938v21.210937h-21.210938zm0 0" fill="#5a5a5a"/><path d="m245.394531 321.238281h21.210938v21.210938h-21.210938zm0 0" fill="#5a5a5a"/><path d="m256 215.183594h10.605469v21.210937h-10.605469zm0 0" fill="#444"/><path d="m256 321.238281h10.605469v21.210938h-10.605469zm0 0" fill="#444"/><path d="m437 151.550781v254.53125h-84.84375v-254.53125l42.421875-63.632812zm0 0" fill="#ff9f00"/><path d="m437 151.550781v254.53125h-42.421875v-318.164062zm0 0" fill="#ff7816"/><path d="m383.972656 215.183594h21.210938v21.210937h-21.210938zm0 0" fill="#5a5a5a"/><path d="m383.972656 321.238281h21.210938v21.210938h-21.210938zm0 0" fill="#5a5a5a"/><g fill="#444"><path d="m394.578125 215.183594h10.605469v21.210937h-10.605469zm0 0"/><path d="m394.578125 321.238281h10.605469v21.210938h-10.605469zm0 0"/></g></symbol><symbol id="awards" viewBox="0 0 512 512"><title>awards</title><path d="m512 256c0 141.386719-114.613281 256-256 256s-256-114.613281-256-256 114.613281-256 256-256 256 114.613281 256 256zm0 0" fill="#6e6e6e"/><path d="m508.476562 213.558594-137.097656-137.101563-48.203125 48.203125-26.835937-26.835937-18.402344 18.398437 147.816406 147.816406-12.800781 12.800782-184.382813-184.390625-3.4375 3.441406-43.585937-43.585937-46.667969 46.671874 35.28125 35.28125-30.074218 30.078126-9.492188-9.488282-48.828125 48.828125 32.023437 32.023438-57.460937 57.464843 54.445313 54.445313-31.359376 31.359375 45.167969 45.167969-3.664062 3.667969 77.742187 77.742187c18.4375 4.21875 37.625 6.453125 57.339844 6.453125 141.386719 0 256-114.613281 256-256 0-14.460938-1.21875-28.632812-3.523438-42.441406zm0 0" fill="#5a5a5a"/><path d="m317.671875 255.25v86.339844h-49.335937l-12.335938-24.667969-12.335938 24.667969h-49.335937v-86.339844l61.671875-61.671875zm0 0" fill="#ececf1"/><path d="m317.671875 255.25v86.339844h-49.335937l-12.335938-24.667969v-123.34375zm0 0" fill="#e2e2e7"/><path d="m243.664062 292.253906h24.671876v49.335938h-24.671876zm0 0" fill="#5a5a5a"/><g fill="#a8d32a"><path d="m120.324219 304.585938h-37c-20.402344 0-37.824219-16.597657-37.824219-37v-37.003907h37.824219c20.402343 0 37 16.597657 37 37.003907zm0 0"/><path d="m120 226.859375-32.039062-18.5c-17.65625-10.203125-23.738282-32.871094-13.550782-50.539063l18.5-32.054687 32.054688 18.503906c8.550781 4.9375 14.679687 12.921875 17.234375 22.460938 2.554687 9.554687 1.242187 19.527343-3.699219 28.089843zm0 0"/><path d="m154.460938 153.398438-18.5-32.050782c-4.9375-8.566406-6.25-18.527344-3.6875-28.078125 2.554687-9.550781 8.683593-17.523437 17.25-22.464843l32.027343-18.5 18.5 32.039062c10.203125 17.660156 4.128907 40.339844-13.527343 50.550781zm0 0"/><path d="m106.535156 390.910156c-12.804687 0-25.269531-6.636718-32.125-18.488281l-18.5-32.050781 32.050782-18.5c8.539062-4.925782 18.488281-6.261719 28.078124-3.6875 9.550782 2.554687 17.523438 8.683594 22.464844 17.25l18.5 32.039062-32.054687 18.5c-5.804688 3.347656-12.152344 4.9375-18.414063 4.9375zm0 0"/><path d="m171.253906 451.257812c-6.277344 0-12.636718-1.601562-18.441406-4.949218l-32.039062-18.503906 18.5-32.039063c4.9375-8.550781 12.910156-14.679687 22.464843-17.234375 9.574219-2.578125 19.523438-1.242188 28.074219 3.6875l32.050781 18.5-18.5 32.0625c-6.851562 11.839844-19.320312 18.476562-32.109375 18.476562zm0 0"/></g><path d="m429.324219 304.585938h-36.007813v-37c0-20.40625 15.601563-37.003907 36.007813-37.003907h37.175781v37.003907c0 20.402343-16.773438 37-37.175781 37zm0 0" fill="#93bf00"/><path d="m393.457031 226.859375-18.503906-32.050781c-4.9375-8.5625-6.25-18.523438-3.683594-28.078125 2.554688-9.550781 8.683594-17.523438 17.234375-22.460938l32.054688-18.503906 18.5 32.039063c10.1875 17.683593 4.105468 40.351562-13.550782 50.554687zm0 0" fill="#93bf00"/><path d="m359.007812 153.398438-32.050781-18.5c-17.65625-10.203126-23.742187-32.871094-13.550781-50.542969l18.5-32.050781 32.050781 18.503906c8.554688 4.9375 14.683594 12.910156 17.238281 22.460937 2.566407 9.554688 1.25 19.515625-3.6875 28.078125zm0 0" fill="#93bf00"/><path d="m406.933594 390.910156c-6.261719 0-12.609375-1.589844-18.414063-4.9375h-.011719l-32.054687-18.5 18.503906-32.050781c10.214844-17.644531 32.84375-23.726563 50.550781-13.550781l32.050782 18.5-18.5 32.050781c-6.855469 11.851563-19.320313 18.488281-32.125 18.488281zm0 0" fill="#93bf00"/><path d="m342.21875 451.257812c-12.792969 0-25.257812-6.636718-32.113281-18.476562v-.011719l-18.5-32.050781 32.050781-18.503906c8.550781-4.925782 18.5-6.261719 28.078125-3.683594 9.550781 2.550781 17.523437 8.683594 22.460937 17.246094l18.503907 32.027344-32.039063 18.5c-5.808594 3.351562-12.167968 4.953124-18.441406 4.953124zm0 0" fill="#93bf00"/><path d="m344.3125 266.351562-17.269531 17.511719-71.042969-71.042969-71.042969 71.042969-17.269531-17.511719 88.3125-88.3125zm0 0" fill="#ff7816"/><path d="m243.664062 242.914062h24.671876v24.671876h-24.671876zm0 0" fill="#78b9eb"/><path d="m256 242.914062h12.335938v24.671876h-12.335938zm0 0" fill="#5aaae7"/><path d="m256 292.253906h12.335938v49.335938h-12.335938zm0 0" fill="#444"/><path d="m344.3125 266.351562-17.269531 17.511719-71.042969-71.042969v-34.78125zm0 0" fill="#ff4b00"/><path d="m229.03125 423.347656c-29.726562-5.660156-60.804688-23.234375-87.507812-49.503906-30.074219-29.582031-45.757813-67.03125-45.335938-108.273438.566406-55.34375 29.957031-107.644531 58.839844-134.914062 29.882812-28.21875 60.03125-35.171875 61.296875-35.460938l12.320312-2.746093 5.375 24.089843-12.335937 2.746094c-.203125.039063-25.050782 6-49.71875 29.292969-25.09375 23.695313-50.613282 69.140625-51.109375 117.246094-.359375 34.871093 12.417969 65.296875 37.964843 90.433593 23.261719 22.886719 49.832032 38.097657 74.8125 42.855469zm0 0" fill="#b9dd39"/><path d="m282.8125 423.636719-4.289062-24.28125c25.378906-4.46875 52.40625-19.777344 76.125-43.097657 25.546874-25.136718 38.328124-55.5625 37.964843-90.433593-.492187-48.105469-26.015625-93.550781-51.105469-117.246094-24.667968-23.292969-49.519531-29.253906-49.769531-29.304687l-13.746093-3.058594 5.351562-24.089844 13.800781 3.070312c1.265625.289063 31.414063 7.242188 61.296875 35.460938 28.882813 27.269531 58.273438 79.570312 58.839844 134.914062.421875 41.242188-15.261719 78.691407-45.335938 108.273438-27.234374 26.789062-58.902343 44.46875-89.132812 49.792969zm0 0" fill="#a8d32a"/></symbol><symbol id="workspace" viewBox="0 0 512 512"><title>workspace</title><path d="m512 256c0 141.386719-114.613281 256-256 256s-256-114.613281-256-256 114.613281-256 256-256 256 114.613281 256 256zm0 0" fill="#6e6e6e"/><path d="m512 256c0-14.074219-1.152344-27.878906-3.339844-41.335938l-106.164062-106.164062-96.144532 96.148438-116.648437-116.648438-86.710937 86.710938 51.507812 117.605468-61.5 125.683594 80.363281 80.363281c25.925781 8.835938 53.71875 13.636719 82.636719 13.636719 141.386719 0 256-114.613281 256-256zm0 0" fill="#5a5a5a"/><path d="m423 321.320312v96.679688h-330v-330h96.679688v39.960938l-19.335938 9.667968 19.335938 9.667969v19.335937l-38.671876 9.667969 38.671876 9.667969v19.335938l-19.335938 9.667968 19.335938 9.667969v19.335937l-38.671876 9.667969 38.671876 9.667969v19.335938l-19.335938 9.667968 19.335938 9.667969v19.335937h19.335937l9.667969 19.335938 9.667968-19.335938h19.335938l9.667969 38.671876 9.667969-38.671876h19.335937l9.667969 19.335938 9.667968-19.335938h19.335938l9.667969 38.671876 9.667969-38.671876h19.335937l9.667969 19.335938 9.667968-19.335938zm0 0" fill="#ffd400"/><path d="m423 321.320312v96.679688h-330l96.679688-96.679688h19.335937l9.667969 19.335938 9.667968-19.335938h19.335938l9.667969 38.671876 9.667969-38.671876h19.335937l9.667969 19.335938 9.667968-19.335938h19.335938l9.667969 38.671876 9.667969-38.671876h19.335937l9.667969 19.335938 9.667968-19.335938zm0 0" fill="#fdbf00"/><path d="m395.542969 156.449219-119.882813 119.882812-39.253906-1.738281h-1.160156l-.578125-39.253906 119.882812-119.882813 39.253907 1.738281h1.160156zm0 0" fill="#ff7816"/><path d="m151.007812 127.960938h38.671876v19.335937h-38.671876zm0 0" fill="#ff9f00"/><path d="m151.007812 205.304688h38.671876v19.335937h-38.671876zm0 0" fill="#ff9f00"/><path d="m151.007812 282.648438h38.671876v19.335937h-38.671876zm0 0" fill="#ff9f00"/><g fill="#ff7816"><path d="m209.015625 321.320312h19.335937v38.671876h-19.335937zm0 0"/><path d="m286.359375 321.320312h19.335937v38.671876h-19.335937zm0 0"/><path d="m363.703125 321.320312h19.335937v38.671876h-19.335937zm0 0"/></g><path d="m131.671875 166.632812h58.007813v19.335938h-58.007813zm0 0" fill="#ff9f00"/><path d="m131.671875 243.976562h58.007813v19.335938h-58.007813zm0 0" fill="#ff9f00"/><path d="m247.6875 321.320312h19.335938v58.007813h-19.335938zm0 0" fill="#ff7816"/><path d="m325.03125 321.320312h19.335938v58.007813h-19.335938zm0 0" fill="#ff7816"/><path d="m275.660156 276.332031-39.253906-1.738281 157.398438-157.398438h1.160156l.578125 39.253907zm0 0" fill="#ff4b00"/><path d="m275.660156 276.332031-69.996094 29.003907 29.003907-69.996094zm0 0" fill="#fed2a4"/><path d="m255.164062 255.835938 20.496094 20.496093-69.996094 29.003907zm0 0" fill="#ffbd86"/><path d="m423 128.992188-27.457031 27.457031-40.992188-40.992188 27.457031-27.457031zm0 0" fill="#5a5a5a"/><path d="m375.042969 135.953125 27.457031-27.457031 20.496094 20.496094-27.457032 27.457031zm0 0" fill="#444"/></symbol><symbol id="skyscrapper-1" viewBox="0 0 512 512"><title>skyscrapper-1</title><linearGradient id="a"><stop offset="0" stop-color="#78b9eb"/><stop offset="1" stop-color="#5aaae7"/></linearGradient><linearGradient id="b" gradientUnits="userSpaceOnUse" x1="237.3379" x2="274.6621" xlink:href="#a" y1="54.998" y2="92.3223"/><linearGradient id="c" gradientUnits="userSpaceOnUse" x1="221.1641" x2="290.8359" y1="92.5" y2="162.1719"><stop offset="0" stop-color="#e2e2e7"/><stop offset="1" stop-color="#babac0"/></linearGradient><linearGradient id="d"><stop offset="0" stop-color="#ececf1"/><stop offset="1" stop-color="#cfcfd7"/></linearGradient><linearGradient id="e" gradientUnits="userSpaceOnUse" x1="205.168" x2="306.832" xlink:href="#d" y1="130.5352" y2="232.1992"/><linearGradient id="f" gradientUnits="userSpaceOnUse" x1="157.3574" x2="354.6426" xlink:href="#d" y1="200.3848" y2="397.6699"/><linearGradient id="g" gradientUnits="userSpaceOnUse" x1="208.0117" x2="240.0039" xlink:href="#a" y1="235.043" y2="267.0352"/><linearGradient id="h" gradientUnits="userSpaceOnUse" x1="271.9961" x2="303.9883" xlink:href="#a" y1="235.043" y2="267.0352"/><linearGradient id="i" gradientUnits="userSpaceOnUse" x1="208.0117" x2="240.0039" xlink:href="#a" y1="277.6992" y2="309.6914"/><linearGradient id="j" gradientUnits="userSpaceOnUse" x1="271.9961" x2="303.9883" xlink:href="#a" y1="277.6992" y2="309.6914"/><linearGradient id="k" gradientUnits="userSpaceOnUse" x1="208.0117" x2="240.0039" xlink:href="#a" y1="320.3555" y2="352.3477"/><linearGradient id="l" gradientUnits="userSpaceOnUse" x1="271.9961" x2="303.9883" xlink:href="#a" y1="320.3555" y2="352.3477"/><linearGradient id="m" gradientUnits="userSpaceOnUse" x1="242.6699" x2="269.3301" y1="371.0098" y2="397.6699"><stop offset="0" stop-color="#444"/><stop offset="1" stop-color="#292929"/></linearGradient><linearGradient id="n"><stop offset="0" stop-color="#b9dd39"/><stop offset="1" stop-color="#81a713"/></linearGradient><linearGradient id="o" gradientUnits="userSpaceOnUse" x1="372.0969" x2="439.9188" xlink:href="#n" y1="309.2672" y2="377.0891"/><linearGradient id="p" gradientUnits="userSpaceOnUse" x1="72.0812" x2="139.9031" xlink:href="#n" y1="309.2672" y2="377.0891"/><linearGradient id="q" gradientUnits="userSpaceOnUse" x1="159.668" x2="352.332" y1="304.0039" y2="496.668"><stop offset="0" stop-color="#7e7e7e"/><stop offset="1" stop-color="#5a5a5a"/></linearGradient><path d="m512 256c0 141.386719-114.613281 256-256 256s-256-114.613281-256-256 114.613281-256 256-256 256 114.613281 256 256zm0 0" fill="#ffd400"/><path d="m245.335938 47h21.328124v53.320312h-21.328124zm0 0" fill="url(#b)"/><path d="m224.007812 89.65625h63.984376v75.359375h-63.984376zm0 0" fill="url(#c)"/><path d="m181.351562 154.351562h149.296876v54.03125h-149.296876zm0 0" fill="url(#e)"/><path d="m160.023438 197.71875h191.953124v202.617188h-191.953124zm0 0" fill="url(#f)"/><path d="m202.679688 240.375h42.65625v21.328125h-42.65625zm0 0" fill="url(#g)"/><path d="m266.664062 240.375h42.65625v21.328125h-42.65625zm0 0" fill="url(#h)"/><path d="m202.679688 283.03125h42.65625v21.328125h-42.65625zm0 0" fill="url(#i)"/><path d="m266.664062 283.03125h42.65625v21.328125h-42.65625zm0 0" fill="url(#j)"/><path d="m202.679688 325.6875h42.65625v21.328125h-42.65625zm0 0" fill="url(#k)"/><path d="m266.664062 325.6875h42.65625v21.328125h-42.65625zm0 0" fill="url(#l)"/><path d="m245.335938 368.34375h21.328124v31.992188h-21.328124zm0 0" fill="url(#m)"/><path d="m438 336.351562c0-12.371093-10.023438-53.320312-31.992188-53.320312s-31.992187 40.949219-31.992187 53.320312c0 13.960938 8.890625 25.792969 21.328125 30.171876v33.8125h21.328125v-33.8125c12.4375-4.378907 21.328125-16.210938 21.328125-30.171876zm0 0" fill="url(#o)"/><path d="m137.984375 336.351562c0-12.371093-10.023437-53.320312-31.992187-53.320312s-31.992188 40.949219-31.992188 53.320312c0 13.960938 8.890625 25.792969 21.328125 30.171876v33.8125h21.328125v-33.8125c12.4375-4.378907 21.328125-16.210938 21.328125-30.171876zm0 0" fill="url(#p)"/><path d="m74 389.671875h364v21.328125h-364zm0 0" fill="url(#q)"/></symbol><symbol id="blueprint" viewBox="0 0 512 512"><title>blueprint</title><linearGradient id="a" gradientUnits="userSpaceOnUse" x1="0" x2="512" y1="256" y2="256"><stop offset="0" stop-color="#7e7e7e"/><stop offset="1" stop-color="#5a5a5a"/></linearGradient><linearGradient id="b" gradientUnits="userSpaceOnUse" x1="118.8089" x2="418.9651" y1="121.8786" y2="422.0349"><stop offset="0" stop-color="#78b9eb"/><stop offset="1" stop-color="#5aaae7"/></linearGradient><linearGradient id="c" gradientUnits="userSpaceOnUse" x1="176.3125" x2="375.5313" y1="165.9766" y2="365.1953"><stop offset="0" stop-color="#ececf1"/><stop offset="1" stop-color="#cfcfd7"/></linearGradient><path d="m512 256c0 141.386719-114.613281 256-256 256s-256-114.613281-256-256 114.613281-256 256-256 256 114.613281 256 256zm0 0" fill="url(#a)"/><path d="m426 114.84375v300.15625h-320.078125c-10.957031 0-19.921875-8.964844-19.921875-19.921875s8.964844-39.84375 19.921875-39.84375l19.921875-240.390625zm0 0" fill="url(#b)"/><path d="m125.84375 75v300.15625h-19.921875c-10.957031 0-19.921875 8.964844-19.921875 19.921875v-290.195313c0-16.535156 13.347656-29.882812 29.882812-29.882812zm0 0" fill="#5aaae7"/><path d="m166.351562 175.9375v179.296875h59.765626v-9.960937c0-12.949219 8.367187-24.105469 19.921874-28.089844v38.050781h139.453126v-179.296875zm199.21875 99.609375h-59.765624v39.84375h19.921874v-19.921875h39.84375v39.84375h-99.609374v-39.84375h-9.960938c-24.105469 0-44.226562 17.132812-48.808594 39.84375h-20.917968v-79.6875h59.765624v-39.84375h-19.921874v19.921875h-39.84375v-39.84375h99.609374v59.765625h39.84375v-19.921875h-19.921874v-39.84375h59.765624zm0 0" fill="url(#c)"/></symbol><symbol id="map" viewBox="0 0 512 512"><title>map</title><linearGradient id="a"><stop offset="0" stop-color="#ff7a78"/><stop offset="1" stop-color="#ff5552"/></linearGradient><linearGradient id="b" gradientUnits="userSpaceOnUse" x1="74.9807" x2="437.0193" xlink:href="#a" y1="74.9807" y2="437.0193"/><linearGradient id="c" gradientUnits="userSpaceOnUse" x1="248.0029" x2="423.6637" y1="221.0088" y2="396.6696"><stop offset="0" stop-color="#ffeea6"/><stop offset="1" stop-color="#ffcd00"/></linearGradient><linearGradient id="d" gradientUnits="userSpaceOnUse" x1="202.9769" x2="265.1839" y1="320.54" y2="382.7471"><stop offset="0" stop-color="#a0836b"/><stop offset="1" stop-color="#80542f"/></linearGradient><linearGradient id="e" gradientUnits="userSpaceOnUse" x1="96.3363" x2="313.4684" y1="117.3304" y2="334.4626"><stop offset="0" stop-color="#fff7d3"/><stop offset="1" stop-color="#ffeea6"/></linearGradient><linearGradient id="f" gradientUnits="userSpaceOnUse" x1="164.8951" x2="244.9096" xlink:href="#a" y1="174.1714" y2="254.1859"/><linearGradient id="g" gradientUnits="userSpaceOnUse" x1="183.7566" x2="226.0481" y1="193.0329" y2="235.3244"><stop offset="0" stop-color="#ffdad9"/><stop offset="1" stop-color="#ff9c9b"/></linearGradient><path d="m512 256c0 141.386719-114.613281 256-256 256s-256-114.613281-256-256 114.613281-256 256-256 256 114.613281 256 256zm0 0" fill="url(#b)"/><path d="m411.667969 167.539062v241.128907h-193.140625l82.945312-241.128907zm0 0" fill="url(#c)"/><path d="m301.472656 346.460938-82.945312 62.207031v-103.679688zm0 0" fill="url(#d)"/><path d="m108.332031 105.332031h193.140625v241.128907h-193.140625zm0 0" fill="url(#e)"/><path d="m126.105469 123.105469h157.59375v205.582031h-157.59375zm0 0" fill="#fbfbfa"/><path d="m204.902344 157.601562c-31.25 0-56.578125 25.328126-56.578125 56.578126 0 15.625 6.332031 29.765624 16.570312 40.007812l40.007813 40.003906 40.007812-40.003906c10.238282-10.242188 16.570313-24.382812 16.570313-40.007812 0-31.25-25.332031-56.578126-56.578125-56.578126zm0 0" fill="url(#f)"/><path d="m204.902344 244.097656c-16.496094 0-29.917969-13.421875-29.917969-29.917968 0-16.5 13.417969-29.921876 29.917969-29.921876 16.496094 0 29.917968 13.421876 29.917968 29.921876 0 16.496093-13.421874 29.917968-29.917968 29.917968zm0 0" fill="url(#g)"/></symbol><symbol id="home" viewBox="0 0 512 512"><title>home</title><g> <circle style="fill:#FFF9BB;" cx="256" cy="256" r="256"/> </g><g> <path style="fill:#FFEA96;" d="M9.828,326.205C42.414,330.871,79,336,79,336l45-42.75c-42.939,0-89.253-25.338-123.809-29.685 C0.822,285.231,4.136,306.212,9.828,326.205z"/> </g><g> <path style="fill:#FFEA96;" d="M247.333,306.5c-55.5,0,193.167,23.15,193.167,23.15l62.346-5.817 c4.568-16.658,7.503-33.983,8.605-51.814C440.667,272.02,332,306.5,247.333,306.5z"/> </g><g> <path style="fill:#D6EB76;" d="M4.56,304C27.036,422.43,131.029,512,256,512s228.965-89.57,251.44-208H4.56z"/> </g><g> <path style="fill:#D6EB76;" d="M334.729,278.132c0-11.048-8.818-54.132-14.395-54.132c-0.317,0-0.646,0.176-0.982,0.442 c-0.116,0.092-0.236,0.234-0.354,0.356c-0.222,0.229-0.444,0.491-0.67,0.817c-0.147,0.208-0.292,0.431-0.439,0.676 c-0.208,0.348-0.419,0.744-0.63,1.162c-0.154,0.302-0.305,0.58-0.459,0.916c-0.022,0.049-0.044,0.085-0.068,0.136 c0.002,0.003,0.004,0.008,0.004,0.008c-5.122,11.315-10.797,40.755-10.797,49.619c0,9.75,5.023,15.199,11.667,16.348l-0.001,0.001 c0.083,0.014,0.171,0.009,0.255,0.022v13.543c0,1.366,1.108,2.474,2.475,2.474s2.475-1.108,2.475-2.474v-13.544 C329.576,293.446,334.729,288.001,334.729,278.132z"/> </g><g> <path style="fill:#D6EB76;" d="M90.888,288.801c0-7.409-5.913-36.301-9.653-36.301c-0.213,0-0.433,0.118-0.659,0.297 c-0.078,0.061-0.158,0.157-0.238,0.238c-0.149,0.153-0.298,0.329-0.45,0.548c-0.099,0.14-0.196,0.289-0.294,0.454 c-0.14,0.234-0.281,0.499-0.422,0.779c-0.103,0.202-0.205,0.389-0.308,0.614c-0.015,0.033-0.029,0.057-0.046,0.091 c0.001,0.002,0.003,0.006,0.003,0.006c-3.435,7.588-7.241,27.33-7.241,33.274c0,6.538,3.369,10.192,7.824,10.963l-0.001,0 c0.056,0.01,0.115,0.006,0.171,0.015v9.082c0,0.916,0.743,1.659,1.66,1.659c0.917,0,1.66-0.743,1.66-1.659v-9.082 C87.432,299.07,90.888,295.419,90.888,288.801z"/> </g><g> <path style="fill:#CCE16B;" d="M8.157,319.849C36.534,430.319,136.676,512,256,512c116.85,0,215.344-78.314,246.025-185.301 C398.391,322.678,122.582,316.706,8.157,319.849z"/> </g><g> <path style="fill:#CCE16B;" d="M47.665,315.897c-0.605,0-1.178,0.119-1.726,0.292c-1.737-2.497-4.618-4.139-7.891-4.139 c-3.272,0-6.154,1.642-7.891,4.139c-0.548-0.173-1.12-0.292-1.726-0.292c-3.187,0-5.77,2.583-5.77,5.77h30.773 C53.435,318.48,50.852,315.897,47.665,315.897z"/> </g><g> <path style="fill:#CCE16B;" d="M471.638,328c0-5.422-4.396-9.818-9.818-9.818c-0.818,0-1.601,0.129-2.361,0.318 c-2.562-2.767-6.194-4.526-10.262-4.526c-7.746,0-14.025,6.279-14.025,14.025H471.638z"/> </g><g> <polygon style="fill:#FFFCEC;" points="176,328 88,328 88,259.2 128.001,235.2 176,259.2 "/> </g><g style="opacity:0.25;"> <polygon style="fill:#FF8562;" points="88,263.289 88,277.281 132.32,250.688 176,276.897 176,262.904 150.621,247.676 130.657,237.694 "/> </g><g> <g> <polygon style="fill:#FF8562;" points="177.234,269.145 132.32,242.195 87.406,269.145 81.234,258.855 132.32,228.203 183.406,258.855 "/> </g> </g><g> <polygon style="fill:#FFFCEC;" points="312,237.25 216,189 176,214.25 176,328 312,328 "/> </g><g style="opacity:0.25;"> <polygon style="fill:#FF8562;" points="176,213.451 176,227.873 216.328,200.987 312,252.5 312,238.875 215.672,187.003 "/> </g><g> <path style="fill:#FFEB97;" d="M300.152,130.182c-2.289,0-4.453,0.451-6.526,1.104c-6.568-9.442-17.464-15.65-29.838-15.65 c-12.373,0-23.269,6.208-29.838,15.65c-2.073-0.654-4.237-1.104-6.526-1.104c-12.05,0-21.818,9.768-21.818,21.818H321.97 C321.97,139.95,312.202,130.182,300.152,130.182z"/> </g><g> <path style="fill:#FFF1A9;" d="M444.306,142.909c-1.431,0-2.783,0.282-4.079,0.69c-4.105-5.901-10.915-9.781-18.648-9.781 c-7.733,0-14.543,3.88-18.648,9.781c-1.296-0.409-2.648-0.69-4.079-0.69c-7.531,0-13.636,6.105-13.636,13.636h72.726 C457.943,149.014,451.837,142.909,444.306,142.909z"/> </g><g> <path style="fill:#FFF1A9;" d="M228,108c0-15.464-12.536-28-28-28c-2.334,0-4.565,0.369-6.733,0.907 C185.961,73.017,175.602,68,164,68c-22.091,0-40,17.909-40,40H228z"/> </g><g> <path style="fill:#FFF1A9;" d="M262.46,88c0-9.657-7.828-17.485-17.485-17.485c-1.457,0-2.851,0.231-4.204,0.567 c-4.562-4.927-11.031-8.06-18.276-8.06c-13.795,0-24.978,11.183-24.978,24.978H262.46z"/> </g><g> <path style="fill:#FFF1A9;" d="M359.366,75.511c0-8.045-6.521-14.566-14.566-14.566c-1.214,0-2.375,0.192-3.503,0.472 c-3.801-4.105-9.19-6.715-15.225-6.715c-11.492,0-20.809,9.316-20.809,20.809H359.366z"/> </g><g> <path style="fill:#FFF1A9;" d="M415.576,145.182c0-6.323-5.126-11.449-11.449-11.449c-0.954,0-1.867,0.151-2.753,0.371 c-2.987-3.226-7.223-5.277-11.967-5.277c-9.033,0-16.355,7.322-16.355,16.355H415.576z"/> </g><g> <path style="fill:#FFEB97;" d="M87.378,164.489c0-9.657,7.828-17.485,17.485-17.485c1.457,0,2.851,0.231,4.204,0.567 c4.562-4.927,11.031-8.06,18.276-8.06c13.795,0,24.978,11.183,24.978,24.978H87.378z"/> </g><g> <path style="fill:#FFEB97;" d="M281.828,134.708c0-8.779,7.117-15.895,15.895-15.895c1.325,0,2.592,0.21,3.822,0.515 c4.148-4.479,10.029-7.327,16.615-7.327c12.541,0,22.708,10.167,22.708,22.708H281.828z"/> </g><g> <g> <g> <polygon style="fill:#FF8562;" points="317.156,246.667 216.328,192.378 171.328,222.378 164.672,212.393 215.672,178.393 322.844,236.104 "/> </g> </g> </g><g> <rect x="202.025" y="278.007" style="fill:#BF9672;" width="31.315" height="49.993"/> </g><g> <g> <rect x="197.682" y="239.25" style="fill:#63A0B5;" width="40" height="26.5"/> </g> <g> <path style="fill:#4185A6;" d="M239.68,267.75h-44v-30.5h44V267.75z M199.68,263.75h36v-22.5h-36V263.75z"/> </g> <g> <rect x="215.68" y="239.25" style="fill:#4185A6;" width="4" height="26.5"/> </g> </g><g> <g> <rect x="250.017" y="239.25" style="fill:#63A0B5;" width="40" height="26.5"/> </g> <g> <path style="fill:#4185A6;" d="M292.016,267.75h-44v-30.5h44V267.75z M252.016,263.75h36v-22.5h-36V263.75z"/> </g> <g> <rect x="268.016" y="239.25" style="fill:#4185A6;" width="4" height="26.5"/> </g> </g><g> <g> <rect x="250.017" y="280" style="fill:#63A0B5;" width="40" height="26.5"/> </g> <g> <path style="fill:#4185A6;" d="M292.016,308.5h-44V278h44V308.5z M252.016,304.5h36V282h-36V304.5z"/> </g> <g> <rect x="268.016" y="280" style="fill:#4185A6;" width="4" height="26.5"/> </g> </g><g> <g> <rect x="112.322" y="280" style="fill:#63A0B5;" width="40" height="26.5"/> </g> <g> <path style="fill:#4185A6;" d="M154.32,308.5h-44V278h44V308.5z M114.32,304.5h36V282h-36V304.5z"/> </g> <g> <rect x="130.32" y="280" style="fill:#4185A6;" width="4" height="26.5"/> </g> </g><g> <g> <g> <path style="fill:#828240;" d="M369.446,329.651c-2.321,0-4.2-1.879-4.2-4.197v-45.205c0-2.318,1.879-4.197,4.2-4.197 s4.2,1.879,4.2,4.197v45.205C373.646,327.771,371.767,329.651,369.446,329.651z"/> </g> </g> <g> <path style="fill:#69BE5D;" d="M399.225,268.525c0,22.854-13.333,34.326-29.78,34.326s-29.78-11.472-29.78-34.326 c0-22.854,18.242-111.98,29.78-111.98S399.225,245.671,399.225,268.525z"/> </g> <g> <path style="fill:#9DC85C;" d="M369.445,156.545c-2.285,0-4.834,3.534-7.452,9.318c9.412,14.255,21.589,84.684,21.589,104.247 c0,19.112-8.499,29.872-19.783,32.236c1.831,0.317,3.711,0.506,5.645,0.506c16.447,0,29.78-11.472,29.78-34.326 C399.225,245.671,380.982,156.545,369.445,156.545z"/> </g> </g><g> <g> <g> <path style="fill:#828240;" d="M413.214,329.651c-2.321,0-4.2-1.879-4.2-4.197v-45.205c0-2.318,1.879-4.197,4.2-4.197 s4.2,1.879,4.2,4.197v45.205C417.414,327.771,415.535,329.651,413.214,329.651z"/> </g> </g> <g> <path style="fill:#69BE5D;" d="M437.637,274.698c0,18.744-10.935,28.153-24.424,28.153c-13.489,0-24.424-9.409-24.424-28.153 s14.962-91.843,24.424-91.843S437.637,255.954,437.637,274.698z"/> </g> <g> <path style="fill:#9DC85C;" d="M413.213,182.855c-1.874,0-3.965,2.898-6.112,7.642c7.72,11.691,17.707,69.455,17.707,85.5 c0,15.675-6.97,24.5-16.225,26.439c1.502,0.26,3.044,0.415,4.63,0.415c13.489,0,24.425-9.409,24.425-28.153 C437.637,255.954,422.675,182.855,413.213,182.855z"/> </g> </g><g> <path style="fill:#D6EB76;" d="M490.375,283.841c0-9.101-7.264-44.591-11.858-44.591c-0.261,0-0.532,0.145-0.809,0.364 c-0.096,0.075-0.194,0.193-0.292,0.293c-0.183,0.188-0.366,0.404-0.552,0.673c-0.121,0.172-0.24,0.355-0.362,0.557 c-0.172,0.287-0.345,0.613-0.519,0.957c-0.127,0.249-0.251,0.478-0.378,0.754c-0.018,0.041-0.036,0.07-0.056,0.112l0.005,0.009 c-4.221,9.318-8.896,33.57-8.896,40.871c0,8.031,4.138,12.52,9.611,13.467l-0.001,0c0.069,0.012,0.141,0.008,0.21,0.019v11.156 c0,1.125,0.913,2.038,2.039,2.038c1.126,0,2.039-0.912,2.039-2.038v-11.157C486.13,296.455,490.375,291.97,490.375,283.841z"/> </g><g> <path style="fill:#D6EB76;" d="M76.97,286.617c0-8.154-6.508-39.95-10.624-39.95c-0.234,0-0.477,0.13-0.725,0.326 c-0.086,0.068-0.174,0.172-0.262,0.262c-0.164,0.169-0.328,0.362-0.495,0.603c-0.109,0.154-0.215,0.318-0.324,0.499 c-0.154,0.257-0.309,0.549-0.465,0.858c-0.113,0.223-0.225,0.428-0.339,0.676c-0.016,0.036-0.032,0.063-0.05,0.1l0.005,0.008 c-3.782,8.348-7.97,30.076-7.97,36.618c0,7.196,3.707,11.217,8.611,12.065c-0.001,0,0,0-0.001,0 c0.062,0.011,0.126,0.007,0.188,0.017v9.995c0,1.008,0.818,1.826,1.827,1.826s1.827-0.818,1.827-1.826v-9.996 C73.167,297.919,76.97,293.9,76.97,286.617z"/> </g><g> <path style="fill:#D6EB76;" d="M42.028,291.86c0-6.365-5.08-31.187-8.293-31.187c-0.183,0-0.372,0.101-0.566,0.255 c-0.067,0.053-0.136,0.135-0.204,0.205c-0.128,0.132-0.256,0.283-0.386,0.471c-0.085,0.12-0.168,0.248-0.253,0.39 c-0.12,0.201-0.241,0.429-0.363,0.669c-0.089,0.174-0.176,0.334-0.264,0.528c-0.013,0.028-0.025,0.049-0.039,0.078 c0.001,0.002,0.003,0.005,0.003,0.005c-2.951,6.519-6.221,23.48-6.221,28.587c0,5.617,2.894,8.757,6.722,9.419l-0.001,0 c0.048,0.008,0.099,0.005,0.147,0.013v7.803c0,0.787,0.638,1.425,1.426,1.425s1.426-0.638,1.426-1.425v-7.803 C39.06,300.683,42.028,297.546,42.028,291.86z"/> </g><g> <path style="fill:#D6EB76;" d="M471.638,279.705c0-10.511-8.389-51.502-13.696-51.502c-0.302,0-0.615,0.167-0.934,0.421 c-0.111,0.087-0.224,0.222-0.337,0.338c-0.211,0.218-0.423,0.467-0.638,0.777c-0.14,0.198-0.278,0.41-0.418,0.644 c-0.198,0.331-0.399,0.708-0.599,1.106c-0.146,0.287-0.29,0.552-0.436,0.871c-0.021,0.047-0.042,0.081-0.065,0.129 c0.002,0.003,0.004,0.008,0.004,0.008c-4.873,10.765-10.273,38.775-10.273,47.209c0,9.276,4.779,14.461,11.101,15.554 l-0.001,0.001c0.079,0.014,0.163,0.009,0.242,0.021v12.885c0,1.3,1.054,2.354,2.355,2.354c1.301,0,2.355-1.054,2.355-2.354 v-12.886C466.736,294.275,471.638,289.095,471.638,279.705z"/> </g><g> <path style="fill:#D0D75B;" d="M25.441,367.033C66.779,452.789,154.422,512,256,512c104.79,0,194.779-63.004,234.375-153.168 C373.232,349.462,120.794,353.553,25.441,367.033z"/> </g><g> <path style="fill:#D8C34A;" d="M426.797,446.582c-83.437-21.76-254.704-52.148-377.695-40.267C95.599,470.296,170.844,512,256,512 C321.668,512,381.513,487.246,426.797,446.582z"/> </g><g> <path style="fill:#D0B459;" d="M110.597,466.46C151.861,495.13,201.914,512,256,512c55.782,0,107.324-17.911,149.348-48.213 C324.254,458.471,191.982,455.139,110.597,466.46z"/> </g><g> <rect x="81.234" y="321.667" style="fill:#AB8240;" width="237.531" height="6.333"/> </g><g> <circle style="fill:#D0D75B;" cx="183.406" cy="426.21" r="6.667"/> </g><g> <circle style="fill:#D8C34A;" cx="211.016" cy="482.833" r="6.667"/> </g><g> <circle style="fill:#D8C34A;" cx="299.271" cy="489.5" r="6.667"/> </g><g> <circle style="fill:#D0B459;" cx="329.51" cy="446.21" r="6.667"/> </g><g> <circle style="fill:#D0D75B;" cx="263.788" cy="478.774" r="6.667"/> </g><g> <circle style="fill:#D0D75B;" cx="285.938" cy="437.333" r="6.667"/> </g><g> <circle style="fill:#D0B459;" cx="237.949" cy="439.543" r="6.667"/> </g><g> <circle style="fill:#CCE16B;" cx="171.339" cy="386.667" r="4"/> </g><g> <circle style="fill:#CCE16B;" cx="296.605" cy="400" r="4"/> </g><g> <circle style="fill:#CCE16B;" cx="384.609" cy="417.333" r="4"/> </g><g> <circle style="fill:#D8C34A;" cx="357.993" cy="378.667" r="4"/> </g><g> <circle style="fill:#D8C34A;" cx="250.017" cy="370.667" r="4"/> </g><g> <circle style="fill:#D0B459;" cx="132" cy="439.543" r="6.667"/> </g><g> <path style="fill:#9DC85C;" d="M104.267,317.591c-1.582,0-3.077,0.311-4.509,0.763c-4.538-6.524-12.067-10.814-20.617-10.814 s-16.078,4.289-20.617,10.814c-1.433-0.452-2.928-0.763-4.509-0.763c-8.326,0-15.076,6.75-15.076,15.076h80.403 C119.343,324.341,112.593,317.591,104.267,317.591z"/> </g><g> <path style="fill:#9DC85C;" d="M132.322,332.593c0-7.478,6.062-13.54,13.54-13.54c1.129,0,2.208,0.178,3.256,0.439 c3.533-3.815,8.543-6.242,14.153-6.242c10.683,0,19.343,8.66,19.343,19.343H132.322z"/> </g><g> <path style="fill:#69BE5D;" d="M94.601,317.591c-1.582,0-3.077,0.312-4.509,0.763c-3.652-5.25-9.284-8.926-15.783-10.21 c-6.5,1.285-12.131,4.96-15.783,10.21c-1.433-0.452-2.928-0.763-4.509-0.763c-8.326,0-15.076,6.75-15.076,15.076h70.736 C109.676,324.34,102.927,317.591,94.601,317.591z"/> </g><g> <path style="fill:#69BE5D;" d="M159.887,313.613c-4.22,0.762-7.968,2.853-10.769,5.878c-1.048-0.26-2.127-0.438-3.256-0.438 c-7.478,0-13.54,6.062-13.54,13.54h43.303C175.625,323.145,168.842,315.306,159.887,313.613z"/> </g><g> <path style="fill:#9DC85C;" d="M390.051,332.593c0-8.674,7.031-15.705,15.705-15.705c1.309,0,2.561,0.207,3.776,0.509 c4.098-4.426,9.909-7.24,16.416-7.24c12.391,0,22.436,10.045,22.436,22.436H390.051z"/> </g><g> <path style="fill:#CCE16B;" d="M322.844,324.603c0-5.422,4.396-9.818,9.818-9.818c0.818,0,1.601,0.129,2.361,0.318 c2.562-2.767,6.194-4.526,10.262-4.526c7.746,0,14.025,6.279,14.025,14.025H322.844z"/> </g><g> <path style="fill:#69BE5D;" d="M422.023,310.578c-4.895,0.884-9.242,3.309-12.491,6.818c-1.216-0.301-2.468-0.509-3.776-0.509 c-8.674,0-15.705,7.031-15.705,15.705h50.227C440.278,321.634,432.411,312.541,422.023,310.578z"/> </g></symbol><symbol id="crane" viewBox="0 0 512 512"><title>crane</title><path d="m512 256c0 141.386719-114.613281 256-256 256s-256-114.613281-256-256 114.613281-256 256-256 256 114.613281 256 256zm0 0" fill="#78b9eb"/><path d="m504 192.261719-48.960938-48.957031-131.074218-35.832032-69.472656-69.472656-22.171876 22.171875 15.960938 21.328125-17.78125 4.5-161.5 62-14.941406 91.445312 152.421875 152.421876-20.308594 20.304687 10.132813 10.132813-41.628907 41.632812 40.863281 40.863281c19.386719 4.691407 39.628907 7.199219 60.460938 7.199219 141.386719 0 256-114.613281 256-256 0-22.003906-2.777344-43.359375-8-63.738281zm0 0" fill="#5aaae7"/><path d="m179.636719 176.949219h24.960937v274.570312h-24.960937zm0 0" fill="#5a5a5a"/><path d="m279.480469 176.949219h24.960937v274.570312h-24.960937zm0 0" fill="#444"/><path d="m291.960938 376.636719 7.488281 9.984375-57.410157 43.183594-42.433593 31.699218-14.976563-19.96875 57.410156-42.933594 27.957032-20.964843-27.957032-17.472657-56.660156-35.445312 6.738282-10.484375-6.738282-10.484375 56.660156-35.445312 27.957032-17.46875-27.957032-20.96875-57.410156-42.933594 14.976563-19.96875 42.433593 31.949218 57.410157 42.933594-7.488281 9.984375 6.738281 10.484375-56.660157 35.445313-26.457031 16.472656 26.457031 16.472656 56.660157 35.445313zm0 0" fill="#5a5a5a"/><path d="m299.449219 386.621094-57.410157 43.183594v-31.203126l27.957032-20.964843-27.957032-17.472657v-29.457031l56.660157 35.445313-6.738281 10.484375zm0 0" fill="#444"/><path d="m291.960938 251.832031 6.738281 10.484375-56.660157 35.445313v-29.457031l27.957032-17.46875-27.957032-20.96875v-30.953126l57.410157 42.933594zm0 0" fill="#444"/><path d="m229.558594 38h24.960937v138.949219h-24.960937zm0 0" fill="#6e6e6e"/><path d="m154.675781 439.039062h174.726563v24.960938h-174.726563zm0 0" fill="#6e6e6e"/><path d="m442.558594 289.273438h12.480468v-99.84375l-12.480468-24.960938-12.480469 24.960938v77.015624c-14.527344 5.15625-24.960937 19.039063-24.960937 35.308594 0 20.648438 16.796874 37.441406 37.441406 37.441406 20.644531 0 37.441406-16.796874 37.441406-37.441406h-24.960938c0 6.886719-5.59375 12.480469-12.480468 12.480469-6.886719 0-12.480469-5.59375-12.480469-12.480469 0-6.886718 5.59375-12.480468 12.480469-12.480468zm0 0" fill="#e2e2e7"/><path d="m154.675781 239.351562h-100.675781v-49.921874l43.683594-12.480469 56.992187 12.480469zm0 0" fill="#fdbf00"/><path d="m242.039062 38h12.480469v138.949219h-12.480469zm0 0" fill="#5a5a5a"/><path d="m242.039062 439.039062h87.363282v24.960938h-87.363282zm0 0" fill="#5a5a5a"/><path d="m246.53125 65.375h-4.492188l-4.992187.246094-183.046875 78.128906v45.679688h401.039062v-46.175782zm183.546875 99.09375h-351.117187v-4.242188l163.078124-69.640624h.25l187.789063 70.136718zm0 0" fill="#6e6e6e"/><path d="m455.039062 143.253906v46.175782h-213v-24.960938h188.039063v-3.746094l-187.789063-70.136718h-.25v-25.210938h4.492188zm0 0" fill="#5a5a5a"/></symbol><symbol id="drops" viewBox="0 0 512 512"><title>drops</title><path d="m512 256c0 141.386719-114.613281 256-256 256s-256-114.613281-256-256 114.613281-256 256-256 256 114.613281 256 256zm0 0" fill="#4a7aff"/><path d="m309.660156 202.257812-127.757812-127.757812-68.394532 270.632812 165.796876 165.800782c95.996093-8.664063 176.710937-70.304688 212.65625-155.472656l-181.460938-181.460938zm0 0" fill="#2864f0"/><path d="m286.808594 265.597656c0 57.933594-46.96875 104.902344-104.90625 104.902344-57.933594 0-104.902344-46.96875-104.902344-104.902344 0-57.9375 104.902344-191.097656 104.902344-191.097656s104.90625 133.160156 104.90625 191.097656zm0 0" fill="#fff"/><path d="m181.75 370.496094c.050781 0 .101562.003906.152344.003906 57.9375 0 104.90625-46.96875 104.90625-104.902344 0-57.9375-104.90625-191.097656-104.90625-191.097656zm0 0" fill="#e9edf5"/><path d="m403 342.5c0 51.085938-41.414062 92.5-92.5 92.5s-92.5-41.414062-92.5-92.5 92.5-168.5 92.5-168.5 92.5 117.414062 92.5 168.5zm0 0" fill="#96e8ff"/><path d="m310.5 174v261c51.085938 0 92.5-41.414062 92.5-92.5s-92.5-168.5-92.5-168.5zm0 0" fill="#80dbff"/></symbol></svg>